<svg width="24" height="24" viewBox="0 0 24 24" fill="none" xmlns="http://www.w3.org/2000/svg">
  <path d="M21.6 12.4C21.9 13.1 22 13.8 22 14.2C22 14.4 22 14.5 21.9 14.7C21.4 16.2 18.9 17.9 16.9 18.8C15.5 19.4 14.1 19.8 12.9 19.8C10.4 19.8 8.49999 18.5 7.89999 17.9C7.49999 17.6 7.19999 17.2 6.89999 16.8L6.79999 16.7L9.19999 15.7C9.19999 15.7 9.29999 15.8 9.29999 15.8C9.59999 16.2 10.4 17.1 11.9 17.1C12.4 17.1 13 17 13.6 16.8L13.5 16.5L13.2 16C12.8 15.1 12.2 13.9 11.9 13.3L11.9 13.3L4.09999 13.3C4.09999 13.3 3.99999 13.3 3.79999 13.1L3.69999 13C3.59999 12.9 3.39999 12.7 3.39999 12.4C3.39999 12.3 3.39999 12.3 3.39999 12.2V12.1V11.7C3.39999 11.5 3.39999 11.4 3.39999 11.2C3.99999 7.8 6.09999 5.7 9.29999 5.7C11.3 5.7 12.3 6.8 12.7 7.3L14.7 4.4C14.7 4.4 14.7 4.4 14.7 4.4C12.8 3.1 11.1 2.7 9.59999 2.7C4.59999 2.7 1.89999 6.3 1.19999 10C0.999985 10.8 0.899985 11.7 0.999985 12.6C0.999985 12.7 0.999985 12.9 1.09999 13.1C1.39999 14.8 2.09999 16.3 3.09999 17.5C5.09999 20 8.09999 21 11 21C13 21 15.6 20.4 17.7 19.2C20.2 17.7 21.7 15.5 21.9 14.9C22 14.7 22 14.5 22 14.3C22 14 21.9 13.6 21.8 13.3L21.6 12.4Z" fill="#333333"/>
  <path d="M6.5 11.2L16.7 11.1L16.7 9.9L6.5 9.9L6.5 11.2Z" fill="white"/>
</svg> 