<svg width="180" height="180" viewBox="0 0 180 180" fill="none" xmlns="http://www.w3.org/2000/svg">
  <rect width="180" height="180" rx="8" fill="#F8F8F8"/>
  
  <!-- QR Code Frame -->
  <rect x="40" y="40" width="100" height="100" stroke="#CCCCCC" stroke-width="2"/>
  
  <!-- Top Left Corner -->
  <rect x="50" y="50" width="30" height="30" fill="#333333"/>
  <rect x="55" y="55" width="20" height="20" fill="#F8F8F8"/>
  <rect x="60" y="60" width="10" height="10" fill="#333333"/>
  
  <!-- Top Right Corner -->
  <rect x="100" y="50" width="30" height="30" fill="#333333"/>
  <rect x="105" y="55" width="20" height="20" fill="#F8F8F8"/>
  <rect x="110" y="60" width="10" height="10" fill="#333333"/>
  
  <!-- Bottom Left Corner -->
  <rect x="50" y="100" width="30" height="30" fill="#333333"/>
  <rect x="55" y="105" width="20" height="20" fill="#F8F8F8"/>
  <rect x="60" y="110" width="10" height="10" fill="#333333"/>
  
  <!-- Middle Dots -->
  <rect x="90" y="60" width="10" height="10" fill="#333333"/>
  <rect x="60" y="90" width="10" height="10" fill="#333333"/>
  <rect x="90" y="90" width="10" height="10" fill="#333333"/>
  <rect x="110" y="100" width="10" height="10" fill="#333333"/>
  <rect x="100" y="110" width="10" height="10" fill="#333333"/>
  <rect x="120" y="90" width="10" height="10" fill="#333333"/>
  <rect x="90" y="120" width="10" height="10" fill="#333333"/>
</svg> 