<svg width="24" height="24" viewBox="0 0 24 24" fill="none" xmlns="http://www.w3.org/2000/svg">
  <path d="M9.5 10C10.3284 10 11 9.32843 11 8.5C11 7.67157 10.3284 7 9.5 7C8.67157 7 8 7.67157 8 8.5C8 9.32843 8.67157 10 9.5 10Z" fill="#333333"/>
  <path d="M14.5 10C15.3284 10 16 9.32843 16 8.5C16 7.67157 15.3284 7 14.5 7C13.6716 7 13 7.67157 13 8.5C13 9.32843 13.6716 10 14.5 10Z" fill="#333333"/>
  <path d="M9.5 18C10.3284 18 11 17.3284 11 16.5C11 15.6716 10.3284 15 9.5 15C8.67157 15 8 15.6716 8 16.5C8 17.3284 8.67157 18 9.5 18Z" fill="#333333"/>
  <path d="M14.5 18C15.3284 18 16 17.3284 16 16.5C16 15.6716 15.3284 15 14.5 15C13.6716 15 13 15.6716 13 16.5C13 17.3284 13.6716 18 14.5 18Z" fill="#333333"/>
  <path d="M20.9998 14C20.9998 10.7504 17.9324 8.1092 14.0825 8.0063C14.0577 8.00211 14.0329 8 14.008 8H9.99206C9.96715 8 9.94231 8.00211 9.91754 8.0063C6.06762 8.1092 3.00024 10.7504 3.00024 14C3.00024 15.9793 4.01102 17.7277 5.58557 18.8923C5.6172 18.9159 5.64269 18.9479 5.65923 18.9853L6.31646 20.2271C6.40155 20.3892 6.57446 20.4624 6.7492 20.4085L8.59249 19.8386C8.62687 19.8273 8.66304 19.824 8.69822 19.8289C9.12439 19.9411 9.56947 20 10.0277 20H13.9724C14.4306 20 14.8757 19.9411 15.3019 19.8289C15.337 19.824 15.3732 19.8273 15.4076 19.8386L17.2509 20.4085C17.4256 20.4624 17.5985 20.3892 17.6836 20.2271L18.3409 18.9853C18.3574 18.9479 18.3829 18.9159 18.4145 18.8923C19.9891 17.7277 20.9998 15.9793 20.9998 14Z" stroke="#333333" stroke-width="1.5"/>
</svg> 